<svg class="lines" width="1440" height="826" viewBox="0 0 1440 826" fill="none" xmlns="http://www.w3.org/2000/svg">
<g opacity="0.4" clip-path="url(#clip03984uhdfgasdf)">
<rect width="1440" height="826" fill="black"/>
<path opacity="0.5" d="M1615.88 445.467V358.612H1744V236.986H1620.59V114.945H1439.97V37.371H1202.98V-9.86623L1179.71 -33H34.6346V91.396H-191V647.299H-75.6203V890.134H-54.8436V647.16V636.771V321.487H112.062V389.503H231.736V436.325H59.9821L34.4961 461.813V748.7L59.8436 774.05H140.042V889.026H139.765V909.805H583.97V764.076H700.319V675.281L677.465 652.424H585.078V579.006H521.224V518.193H584.662L625.246 518.332L610.979 532.6L620.952 542.574L655.58 507.942L620.952 473.311L610.979 483.285L625.246 497.553H584.662H458.617V446.021H555.298V257.627H628.293V286.717L652.948 311.375H825.394V492.704L853.097 520.41H1017.79V624.027H920.552V644.806V662.675V696.891H884.539H848.526H827.749V820.317L854.205 846.776H1038.7V717.67H1334.7V785.686H1744V764.907H1355.48V717.67H1526.81V647.299H1744V626.52H1526.81V527.613H1744V506.834H1506.04V626.52H1355.48V445.467H1615.88ZM1017.92 825.858H848.526V773.911H1017.79V825.858H1017.92ZM1017.92 753.133H848.526V717.531H1017.79V753.133H1017.92ZM1017.92 696.891H941.328V644.944H1017.92V696.891ZM1439.97 135.586H1599.81V257.627H1723.22V337.694H1595.1V424.55H1439.97V135.586ZM751.984 93.3353H867.779V159.273H751.984V93.3353ZM317.89 696.753V662.675H500.447V825.858H161.095V773.911H454.462V696.753H317.89ZM297.113 614.746V717.531H433.685V753.133H252.236V518.332H314.843V518.055H437.979V591.058H320.799L297.113 614.746ZM317.89 497.276V305.279H437.84V497.276H317.89V497.276ZM317.89 284.501V257.627H408.338H437.84V284.501H317.89ZM282.708 79.3442V-12.2212H398.088V236.848H318.028V114.53L294.897 91.396H282.846V79.3442H282.708ZM158.325 -12.2212H261.931V91.396H158.325V-12.2212ZM158.325 112.175H297.113V236.848H158.325V112.175ZM55.4112 -12.2212H137.41V91.396H55.4112V-12.2212V-12.2212ZM55.4112 112.175H137.41V236.848H55.4112V112.175V112.175ZM-75.6203 626.382H-170.223V579.006H-75.6203V626.382ZM191.152 457.103H252.513V391.304L229.935 368.724H132.839V322.041L111.37 300.57H-75.6203V558.089H-170.223V112.036H34.6346V257.488H296.975V497.414H191.014V457.103H191.152ZM191.152 518.332H231.32V753.133H191.152V518.332ZM55.4112 457.103H170.375V497.553H55.4112V457.103V457.103ZM55.4112 518.332H170.375V590.642H55.4112V518.332V518.332ZM55.4112 753.133V611.421H170.375V753.133H161.095H150.707H55.4112ZM521.224 599.646H564.301V673.065H679.542V743.159H521.224V599.646ZM521.224 764.076H563.47V888.888H161.095V846.637H496.292L521.224 821.703V764.076ZM500.447 518.055V641.897H317.89V611.836H434.516L458.756 587.594V517.916H500.447V518.055ZM534.521 424.966H458.617V257.627H534.521V424.966ZM628.293 236.848H458.617H418.726V180.052H628.293V236.848ZM628.293 159.273H418.726V-12.2212H731.207V72.5565H654.749L628.293 95.8288V159.273ZM731.207 93.3353V159.273H649.07V93.3353H731.207ZM950.608 499.769H846.31V386.317H950.608V499.769ZM950.608 365.538H846.31V318.578L818.469 290.734H649.07V180.052H867.64V250.562H950.47V365.538H950.608ZM1017.92 499.769H971.385V386.317H1017.92V499.769ZM1017.92 365.538H971.385V250.562H1017.92V365.538ZM1017.92 229.783H888.556V91.5345L869.718 72.695H752.122V-12.2212H1182.34V37.371H1043.83L1018.06 63.1367V229.783H1017.92ZM1038.7 103.032V58.1498H1182.2V102.894H1038.7V103.032ZM1182.2 123.811V229.922H1164.19V123.811H1182.2V123.811ZM1143.42 123.811V229.922H1126.79V123.811H1143.42V123.811ZM1106.02 123.811V229.922H1038.7V123.811H1106.02V123.811ZM1038.7 579.976H1219.74V624.165H1038.7V579.976ZM1219.74 559.197H1038.7V520.548H1219.74V559.197ZM1334.7 696.891H1038.7V644.944H1240.51V499.769H1038.7V250.562H1182.2V365.954H1105.33V419.563L1131.23 445.467H1334.7V696.891ZM1334.7 424.688H1126.1V386.732H1202.98V250.562H1334.7V424.688ZM1505.9 647.16V696.753H1355.48V647.16H1505.9V647.16ZM1332.62 229.783H1202.98V58.1498H1419.19V125.196V135.586V424.55H1355.48V252.64L1332.62 229.783Z" stroke="url(#paint0_radial8dsfjhkasdb2)" stroke-width="1.5" stroke-miterlimit="10"/>
</g>
<defs>
<radialGradient id="paint0_radial8dsfjhkasdb2" cx="0" cy="0" r="1" gradientUnits="userSpaceOnUse" gradientTransform="translate(776.5 438.402) rotate(90) scale(471.402 967.5)">
<stop stop-color="#0ADEBE"/>
<stop offset="0.59375" stop-color="#3D48B1"/>
<stop offset="1" stop-color="#000E23"/>
</radialGradient>
<clipPath id="clip03984uhdfgasdf">
<rect width="1440" height="826" fill="white"/>
</clipPath>
</defs>
</svg>
